<?xml version="1.0" standalone="no"?>
<!DOCTYPE svg PUBLIC "-//W3C//DTD SVG 20010904//EN"
 "http://www.w3.org/TR/2001/REC-SVG-20010904/DTD/svg10.dtd">
<svg version="1.0" xmlns="http://www.w3.org/2000/svg"
 width="512.000000pt" height="512.000000pt" viewBox="0 0 512.000000 512.000000"
 preserveAspectRatio="xMidYMid meet">
<metadata>
Created by potrace 1.14, written by Peter Selinger 2001-2017
</metadata>
<g transform="translate(0.000000,512.000000) scale(0.100000,-0.100000)"
fill="#000000" stroke="none">
<path d="M1641 4784 c-151 -39 -272 -148 -332 -299 l-24 -60 -2 -1250 -3
-1250 -32 -24 c-69 -52 -205 -200 -244 -266 -143 -246 -162 -536 -50 -789 98
-221 299 -404 531 -481 118 -40 284 -53 412 -34 281 41 544 243 666 510 53
117 76 236 72 379 -2 63 -6 124 -9 135 -3 11 -12 44 -20 73 -47 170 -173 349
-328 466 l-38 28 0 1218 c0 786 -4 1236 -10 1271 -51 265 -327 440 -589 373z"/>
<path d="M3625 4775 c-24 -24 -25 -28 -25 -181 l0 -158 -104 102 c-87 86 -108
102 -135 102 -21 0 -41 -9 -58 -26 -21 -21 -24 -32 -19 -62 4 -30 31 -62 161
-192 l155 -155 0 -233 0 -233 -47 27 c-27 14 -85 48 -129 75 -45 27 -87 49
-93 49 -6 0 -11 5 -11 10 0 6 -4 10 -9 10 -5 0 -34 14 -64 31 -49 29 -55 36
-67 83 -36 143 -83 316 -96 353 -33 92 -156 73 -153 -24 0 -15 15 -80 33 -143
18 -63 32 -116 30 -118 -1 -2 -20 8 -43 22 -22 14 -43 26 -47 26 -3 0 -18 8
-32 18 -56 39 -144 82 -168 82 -58 0 -94 -80 -56 -126 15 -19 121 -84 225
-139 20 -11 37 -22 37 -25 0 -3 -57 -21 -127 -39 -75 -20 -137 -42 -150 -54
-25 -22 -30 -65 -12 -98 20 -38 53 -41 157 -14 53 14 108 28 122 31 14 2 36 9
50 13 14 5 55 17 92 27 81 20 46 34 331 -131 75 -44 137 -82 137 -86 0 -3 -88
-56 -196 -118 -152 -87 -201 -111 -222 -107 -31 6 -259 66 -345 91 -48 14 -64
15 -88 5 -35 -15 -49 -38 -49 -77 1 -49 20 -61 166 -101 l139 -39 -40 -24
c-22 -13 -82 -49 -134 -79 -54 -31 -101 -65 -107 -79 -15 -29 -2 -81 23 -96
47 -27 59 -24 189 52 71 41 134 77 141 80 7 3 3 -28 -13 -84 -43 -152 -49
-191 -34 -219 14 -24 47 -39 85 -36 40 2 59 45 115 255 l55 206 45 25 c25 13
115 65 200 115 l155 91 3 -232 2 -231 -160 -162 c-135 -138 -160 -167 -160
-193 0 -41 28 -71 73 -79 37 -6 40 -4 140 96 l102 102 5 -162 c5 -154 6 -162
29 -180 32 -26 77 -24 106 6 24 24 25 28 25 182 l0 158 99 -99 c80 -80 105
-99 134 -103 31 -4 41 0 63 24 49 52 35 77 -141 253 l-155 155 0 233 0 233 49
-28 c26 -15 118 -68 203 -116 l155 -89 16 -66 c21 -81 18 -71 56 -210 17 -62
31 -118 31 -125 0 -8 11 -24 25 -37 35 -33 90 -33 116 1 25 30 21 65 -19 211
-34 122 -39 119 78 50 169 -101 198 -109 238 -72 22 21 26 36 22 75 -3 31 -14
40 -146 116 -123 70 -149 89 -120 89 33 0 248 69 266 85 29 26 26 80 -5 109
-33 31 -46 29 -276 -33 -103 -28 -192 -51 -199 -51 -7 0 -92 46 -189 103 -96
56 -183 105 -193 109 -10 4 -18 11 -18 16 0 5 39 31 86 58 47 27 100 57 117
67 18 10 66 39 108 63 42 24 80 44 86 44 6 0 104 -25 218 -55 123 -32 218 -52
232 -49 52 13 72 94 32 130 -11 10 -80 35 -152 55 -127 35 -130 36 -107 51 90
55 182 108 189 108 5 0 23 13 40 29 22 21 31 38 31 60 0 40 -39 81 -76 81 -15
0 -82 -32 -154 -74 -71 -41 -131 -72 -134 -69 -3 3 -2 13 3 22 4 9 21 67 36
129 32 127 29 158 -18 180 -45 22 -104 -5 -113 -50 -2 -7 -27 -101 -56 -209
l-52 -197 -201 -115 -200 -115 -3 231 -2 231 161 163 c161 161 162 162 156
199 -8 47 -24 63 -70 71 -36 5 -40 3 -142 -98 l-105 -103 0 158 c0 153 -1 157
-25 181 -15 16 -36 25 -55 25 -19 0 -40 -9 -55 -25z"/>
<path d="M401 4319 c-86 -11 -113 -107 -40 -144 41 -22 517 -22 559 0 33 17
44 43 35 86 -12 55 -28 58 -281 61 -126 2 -249 0 -273 -3z"/>
<path d="M610 3842 c-75 -5 -98 -13 -115 -38 -25 -38 -13 -90 25 -109 42 -22
358 -22 400 0 43 22 50 68 18 116 -15 23 -22 24 -154 29 -77 3 -155 4 -174 2z"/>
<path d="M365 3348 c-11 -6 -26 -19 -32 -27 -24 -31 2 -105 42 -115 11 -3 135
-6 275 -6 185 1 259 4 271 13 44 34 46 104 3 132 -19 12 -66 15 -281 15 -175
-1 -264 -4 -278 -12z"/>
<path d="M505 2855 c-16 -15 -25 -36 -25 -55 0 -19 9 -40 25 -55 24 -25 26
-25 213 -25 173 0 190 2 209 20 29 27 37 56 23 89 -18 45 -45 51 -241 51 -178
0 -180 0 -204 -25z"/>
<path d="M345 2375 c-16 -15 -25 -36 -25 -55 0 -19 9 -40 25 -55 l24 -25 269
0 c253 0 269 1 289 20 29 27 37 56 23 89 -19 48 -41 51 -321 51 l-260 0 -24
-25z"/>
</g>
</svg>
